<svg xmlns="http://www.w3.org/2000/svg" width="114.059" height="131.258" viewBox="0 0 114.059 131.258"><g transform="translate(11.689 9.817)"><path d="M52.495,144a3.586,3.586,0,0,1-1.224-.361c-1.548-.36-3.21-.819-4.817-1.262s-3.269-.9-4.817-1.262c-.5-.174-.763-.351-.855-.572a1.109,1.109,0,0,1,.166-.871l.011-.048c1.35-6.01,2.747-12.226,4.463-17.98a3.316,3.316,0,0,1,.05-.527c.061-.395.1-.655-.4-.916-2.7-.708-5.5-1.44-8.6-2.163-.344,1.619-.78,3.266-1.2,4.858s-.862,3.251-1.206,4.877-.781,3.271-1.2,4.866-.86,3.245-1.205,4.869c-.04.085-.076.164-.109.238-.174.39-.279.624-.633.624a2.03,2.03,0,0,1-.634-.141c-1.55-.487-3.187-.929-5.308-1.432-.055-.031-3.362-12.646-3.339-12.734.7-2.834,1.405-5.468,2.11-7.828a1.347,1.347,0,0,1,.128-.474,2.465,2.465,0,0,0,.216-.969c-.726-.2-1.484-.376-2.287-.565-.881-.207-1.79-.421-2.743-.681.071-.1-4.381-17.639-4.438-17.8a5.342,5.342,0,0,0,1.351.181,3.9,3.9,0,0,0,3.988-3.49c3.823-15.714,11.41-47.988,11.486-48.309L84.2,31.009l.079.036c1.6.739,5.582,2.58,7.944,3.7a29.624,29.624,0,0,1,8.947,8.653,21.183,21.183,0,0,1,2.71,8.339,25.535,25.535,0,0,1-.645,8.609c-.894,3.433-2.206,7.359-5.161,10.456a20.694,20.694,0,0,1-7.57,4.687,1.2,1.2,0,0,0-.453.134,2.182,2.182,0,0,1-.924.226c.689.541,1.389,1,2.066,1.443s1.375.9,2.063,1.441A22.776,22.776,0,0,1,101.51,91a29.32,29.32,0,0,1-.688,12.259c-1.589,5.826-3.442,9.816-6.194,13.341A21.127,21.127,0,0,1,80.52,124.53a49.809,49.809,0,0,1-7.448.535,87.346,87.346,0,0,1-13.543-1.256,2.176,2.176,0,0,0-.71-.135c-.642,0-1.1.41-1.355,1.217-.683,2.865-1.378,5.869-2.05,8.774l0,.011,0,.008c-.68,2.938-1.383,5.977-2.074,8.874l-.042.179C53.095,143.578,53,144,52.495,144ZM46,76c-.4,0-.5.313-.694.936-.026.084-.054.173-.085.268-.345,1.782-.785,3.5-1.209,5.168s-.865,3.39-1.211,5.173c-.788,2.845-1.452,5.64-2.156,8.6l0,.006c-.517,2.178-1.053,4.429-1.647,6.728a1.206,1.206,0,0,1,.691.356c.866.223,1.758.46,2.622.689a76,76,0,0,0,14.67,2.878c1.573.135,2.859.2,4.046.2a21.363,21.363,0,0,0,7.711-1.268,10.565,10.565,0,0,0,6.573-6.792,11.347,11.347,0,0,0-1.04-9.968c-1.729-2.853-4.542-4.666-7.262-6.419-6.042-3.461-13.033-4.9-19.794-6.293l-.61-.126A1.969,1.969,0,0,0,46,76Zm8.611-37c-.559,0-.808.448-1.05,1.221-1.438,6.439-3.208,14.139-5.431,22.436-.339.723.008,1.09.679,1.448.679.181,1.283.365,1.866.543s1.19.362,1.867.543c1.4.2,2.76.427,4.077.648A62.771,62.771,0,0,0,67.48,67a20.955,20.955,0,0,0,3.733-.724,9.877,9.877,0,0,0,6.8-5.744,11.037,11.037,0,0,0-.349-9.816c-1.458-2.8-4.084-5.113-7.806-6.876a74.189,74.189,0,0,0-11.6-3.874c-.975-.267-1.982-.543-2.994-.83A1.978,1.978,0,0,0,54.614,39Z" transform="translate(8.963 -43.441) rotate(14)" fill="#fff" opacity="0.2"/></g></svg>