<svg xmlns="http://www.w3.org/2000/svg" width="16" height="22" viewBox="0 0 16 22"><path d="M7.888,21.945c-.476-.11-1.005-.275-1.482-.385-.158-.055-.158-.111-.105-.22.212-.937.423-1.873.688-2.754,0-.111.053-.166-.052-.221-.424-.111-.848-.22-1.324-.33-.106.495-.265.991-.371,1.487s-.265.992-.37,1.488c-.053.11-.053.165-.212.11-.529-.165-1.058-.275-1.588-.385-.159-.056-.159-.111-.106-.221.211-.937.424-1.873.688-2.754,0-.056.052-.111.052-.221-1.217-.331-2.435-.661-3.705-.992.106-.221.158-.385.265-.606.211-.5.424-.992.582-1.433.053-.165.106-.165.265-.165a8.979,8.979,0,0,0,1.165.275.59.59,0,0,0,.795-.5c.688-2.81,1.376-5.619,2.012-8.483a.96.96,0,0,0-.635-1.1c-.476-.166-.953-.275-1.376-.386-.106,0-.159-.055-.106-.165.146-.558.293-1.164.439-1.729.542.147,1.084.253,1.626.407.582.165,1.165.275,1.747.441.159.055.212,0,.265-.166C7.252,2,7.465,1.122,7.676.186c.053-.166.106-.221.265-.166A15.443,15.443,0,0,0,9.476.406c.158.056.158.111.106.22-.212.882-.424,1.818-.635,2.7a.428.428,0,0,1-.053.22c.423.111.9.22,1.323.33.053,0,.106-.11.159-.165.158-.716.318-1.377.529-2.093l.159-.662c0-.11.052-.165.158-.11.529.166,1.058.275,1.641.441.053,0,.053.055.106.055-.158.716-.318,1.377-.476,2.038a4.726,4.726,0,0,1-.212.826c-.052.165,0,.22.159.275l1.747.826a4.556,4.556,0,0,1,1.376,1.322,3.41,3.41,0,0,1,.318,2.588,3.459,3.459,0,0,1-.794,1.6,3.2,3.2,0,0,1-1.165.716c-.053,0-.106.055-.212.055.212.166.423.275.635.441A3.473,3.473,0,0,1,15.617,13.9a4.489,4.489,0,0,1-.105,1.873,5.526,5.526,0,0,1-.953,2.038,3.254,3.254,0,0,1-2.171,1.211,10.546,10.546,0,0,1-3.229-.11.221.221,0,0,0-.318.165c-.212.882-.423,1.818-.635,2.7-.035.146-.047.22-.13.22A.557.557,0,0,1,7.888,21.945ZM3.295,2.227l.146-.113L3.4,2.258Zm-.012,0,.012,0a.276.276,0,0,1-.042.029S3.263,2.244,3.282,2.224Z" transform="translate(0 0)" fill="#fff"/></svg>