<svg xmlns="http://www.w3.org/2000/svg" width="148.054" height="148.054" viewBox="0 0 148.054 148.054"><path d="M.293,33.681V20.506H10.7V-14h23.88L51.2,20.506H70.735V-14H91.022v34.51h11.3V33.681h-11.3v7.86h11.3V54.717h-11.3V93.344H68.714L49.625,54.717H30.985V93.344H10.7V54.717H.293V41.541H10.7v-7.86Zm61.085,7.86h9.357v-7.86H57.56Zm-30.393,0h12.2l-3.893-7.86H30.985ZM71.035,61.978h.225q-.3-2.545-.449-7.261H67.816Q69.463,58.235,71.035,61.978ZM30.761,15.041h-.3q.15,2.4.3,5.465h2.171Q32.033,18.26,30.761,15.041Z" transform="translate(65.797 9.695) rotate(45)" fill="#fff" opacity="0.2"/></svg>