<svg xmlns="http://www.w3.org/2000/svg" width="13.311" height="14.004" viewBox="0 0 13.311 14.004"><path d="M.293-7.783V-9.5H1.65V-14H4.766L6.934-9.5H9.482V-14h2.646v4.5H13.6v1.719H12.129v1.025H13.6v1.719H12.129V0H9.219L6.729-5.039H4.3V0H1.65V-5.039H.293V-6.758H1.65V-7.783ZM8.262-6.758H9.482V-7.783H7.764Zm-3.965,0H5.889L5.381-7.783H4.3ZM9.521-4.092h.029q-.039-.332-.059-.947H9.1Q9.316-4.58,9.521-4.092ZM4.268-10.215H4.229q.02.313.039.713h.283Q4.434-9.795,4.268-10.215Z" transform="translate(-0.293 14.004)" fill="#fff"/></svg>